# File created by Blade
# Date/Time:  Mon Sep 22 17:23:16 2014
# Frame Rate: 120.000 fps
#------------------------------------------------------
:FULLY-SPECIFIED
:DEGREES
2165
root 2.895155 37.251479 0.389696 -20.719325 -14.965744 -9.264345
RightUpLeg -45.534121 -38.407722 -28.826360
RightLeg 128.094223 -0.000000 -0.000000
RightFoot 6.124692 -15.562482 11.919723
RightToeBase 3.907310 -0.000000 -0.000000
LeftUpLeg 23.424146 5.681014 1.253458
LeftLeg 14.553346 -0.000000 -0.000000
LeftFoot -21.398379 19.326527 -15.262635
LeftToeBase 4.217021 -0.000000 -0.000000
Spine 32.435067 2.859865 -9.453372
RightShoulder 9.531748 -22.707428 -9.578683
RightArm 43.173419 -32.738166 44.456796
RightForeArm -179.002845 -0.000000 103.434327
RightHand 99.473005 -0.000000 -168.075014
RightHandThumb1 -24.326973 -0.000000 -32.862282
LeftShoulder -13.081954 24.850695 11.296325
LeftArm 69.907130 -23.835427 -59.437895
LeftForeArm 64.917030 -0.000000 100.087000
LeftHand -26.377113 -0.000000 -23.700084
LeftHandThumb1 -26.253704 0.000000 33.147579
Head 0.134400 14.848347 15.442294
2166
root 2.900008 37.244443 0.369129 -20.644353 -14.885522 -9.165473
RightUpLeg -45.559666 -38.532203 -28.692345
RightLeg 127.054483 -0.000000 -0.000000
RightFoot 4.013231 -16.201089 11.457431
RightToeBase 3.938498 -0.000000 -0.000000
LeftUpLeg 23.258301 5.751424 1.195806
LeftLeg 14.615873 -0.000000 -0.000000
LeftFoot -21.423751 19.154735 -15.300682
LeftToeBase 4.326142 -0.000000 -0.000000
Spine 32.346847 2.964684 -9.650669
RightShoulder 9.538816 -22.710660 -9.550980
RightArm 43.100868 -32.698684 44.536499
RightForeArm -178.998984 -0.000000 103.379473
RightHand 99.419438 -0.000000 -168.155652
RightHandThumb1 -24.326973 -0.000000 -32.862282
LeftShoulder -13.003581 24.823707 11.460994
LeftArm 69.924936 -23.737739 -59.286547
LeftForeArm 64.953466 -0.000000 100.223914
LeftHand -26.427009 -0.000000 -23.571309
LeftHandThumb1 -26.253704 0.000000 33.147579
Head 0.129886 14.734730 15.602400
2167
root 2.901999 37.236112 0.351638 -20.596604 -14.821498 -9.041424
RightUpLeg -45.593756 -38.615176 -28.596666
RightLeg 126.195163 -0.000000 -0.000000
RightFoot 2.181821 -16.839059 10.995934
RightToeBase 3.379531 -0.000000 -0.000000
LeftUpLeg 23.121976 5.839617 1.121898
LeftLeg 14.676019 -0.000000 -0.000000
LeftFoot -21.429226 19.012732 -15.307829
LeftToeBase 4.332481 -0.000000 -0.000000
Spine 32.264594 3.093509 -9.887484
RightShoulder 9.531283 -22.700209 -9.504957
RightArm 43.080444 -32.696425 44.575242
RightForeArm -179.001196 -0.000000 103.317850
RightHand 99.416788 -0.000000 -168.070194
RightHandThumb1 -24.326973 -0.000000 -32.862282
LeftShoulder -12.931488 24.799624 11.638724
LeftArm 69.973906 -23.662411 -59.172570
LeftForeArm 64.984519 -0.000000 100.310472
LeftHand -26.276838 -0.000000 -23.736879
LeftHandThumb1 -26.253704 0.000000 33.147579
Head 0.141961 14.612920 15.780688
2168
root 2.900009 37.228738 0.332873 -20.568266 -14.759948 -8.902268
RightUpLeg -45.610828 -38.646988 -28.559653
RightLeg 125.510397 -0.000000 -0.000000
RightFoot 0.611906 -17.299467 10.740788
RightToeBase 2.963341 -0.000000 -0.000000
LeftUpLeg 23.001541 5.921659 1.040506
LeftLeg 14.729983 -0.000000 -0.000000
LeftFoot -21.442890 18.864554 -15.317379
LeftToeBase 4.518366 -0.000000 -0.000000
Spine 32.190976 3.235946 -10.173769
RightShoulder 9.535487 -22.669605 -9.426714
RightArm 43.078752 -32.718283 44.593061
RightForeArm -179.051399 -0.000000 103.258412
RightHand 99.384452 -0.000000 -167.989901
RightHandThumb1 -24.326973 -0.000000 -32.862282
LeftShoulder -12.850395 24.753244 11.835540
LeftArm 70.039351 -23.612332 -59.051225
LeftForeArm 64.923658 0.000000 100.353517
LeftHand -26.342491 -0.000000 -23.849976
LeftHandThumb1 -26.253704 0.000000 33.147579
Head 0.174372 14.396991 15.944592
